<mxfile host="app.diagrams.net" modified="2023-04-30T09:04:45.433Z" agent="Mozilla/5.0 (Windows NT 10.0; Win64; x64) AppleWebKit/537.36 (KHTML, like Gecko) Chrome/112.0.0.0 Safari/537.36" etag="5apM7yipFEDYccgxcMEq" version="21.2.3" type="device">
  <diagram name="PÃ¡gina-1" id="MLvNesVm3uiOzzxn0n3o">
    <mxGraphModel dx="666" dy="567" grid="1" gridSize="10" guides="1" tooltips="1" connect="1" arrows="1" fold="1" page="1" pageScale="1" pageWidth="827" pageHeight="1169" math="0" shadow="0">
      <root>
        <mxCell id="0" />
        <mxCell id="1" parent="0" />
        <mxCell id="GELQpujCMFb6DYI_1lB7-5" style="edgeStyle=orthogonalEdgeStyle;rounded=0;orthogonalLoop=1;jettySize=auto;html=1;" edge="1" parent="1" source="GELQpujCMFb6DYI_1lB7-1" target="GELQpujCMFb6DYI_1lB7-3">
          <mxGeometry relative="1" as="geometry" />
        </mxCell>
        <mxCell id="GELQpujCMFb6DYI_1lB7-1" value="inicio" style="ellipse;whiteSpace=wrap;html=1;" vertex="1" parent="1">
          <mxGeometry x="353" y="40" width="120" height="80" as="geometry" />
        </mxCell>
        <mxCell id="GELQpujCMFb6DYI_1lB7-8" style="edgeStyle=orthogonalEdgeStyle;rounded=0;orthogonalLoop=1;jettySize=auto;html=1;entryX=0.5;entryY=0;entryDx=0;entryDy=0;" edge="1" parent="1" source="GELQpujCMFb6DYI_1lB7-3" target="GELQpujCMFb6DYI_1lB7-6">
          <mxGeometry relative="1" as="geometry" />
        </mxCell>
        <mxCell id="GELQpujCMFb6DYI_1lB7-3" value="entras a la masmorra y encuentras al dragon&amp;nbsp;" style="rounded=0;whiteSpace=wrap;html=1;" vertex="1" parent="1">
          <mxGeometry x="354" y="160" width="120" height="60" as="geometry" />
        </mxCell>
        <mxCell id="GELQpujCMFb6DYI_1lB7-13" value="" style="edgeStyle=orthogonalEdgeStyle;rounded=0;orthogonalLoop=1;jettySize=auto;html=1;" edge="1" parent="1" source="GELQpujCMFb6DYI_1lB7-6" target="GELQpujCMFb6DYI_1lB7-14">
          <mxGeometry relative="1" as="geometry">
            <mxPoint x="270" y="280" as="targetPoint" />
          </mxGeometry>
        </mxCell>
        <mxCell id="GELQpujCMFb6DYI_1lB7-15" style="edgeStyle=orthogonalEdgeStyle;rounded=0;orthogonalLoop=1;jettySize=auto;html=1;" edge="1" parent="1" source="GELQpujCMFb6DYI_1lB7-6" target="GELQpujCMFb6DYI_1lB7-11">
          <mxGeometry relative="1" as="geometry" />
        </mxCell>
        <mxCell id="GELQpujCMFb6DYI_1lB7-6" value="que haces ?&lt;br&gt;corres o te queda" style="shape=parallelogram;perimeter=parallelogramPerimeter;whiteSpace=wrap;html=1;fixedSize=1;" vertex="1" parent="1">
          <mxGeometry x="354" y="250" width="120" height="60" as="geometry" />
        </mxCell>
        <mxCell id="GELQpujCMFb6DYI_1lB7-11" value="te queda" style="rhombus;whiteSpace=wrap;html=1;" vertex="1" parent="1">
          <mxGeometry x="530" y="240" width="80" height="80" as="geometry" />
        </mxCell>
        <mxCell id="GELQpujCMFb6DYI_1lB7-18" style="edgeStyle=orthogonalEdgeStyle;rounded=0;orthogonalLoop=1;jettySize=auto;html=1;entryX=0.5;entryY=0;entryDx=0;entryDy=0;" edge="1" parent="1" source="GELQpujCMFb6DYI_1lB7-14" target="GELQpujCMFb6DYI_1lB7-16">
          <mxGeometry relative="1" as="geometry" />
        </mxCell>
        <mxCell id="GELQpujCMFb6DYI_1lB7-14" value="corres" style="rhombus;whiteSpace=wrap;html=1;" vertex="1" parent="1">
          <mxGeometry x="230" y="240" width="80" height="80" as="geometry" />
        </mxCell>
        <mxCell id="GELQpujCMFb6DYI_1lB7-16" value="50%&lt;br&gt;de supervivencia" style="shape=parallelogram;perimeter=parallelogramPerimeter;whiteSpace=wrap;html=1;fixedSize=1;" vertex="1" parent="1">
          <mxGeometry x="210" y="380" width="120" height="60" as="geometry" />
        </mxCell>
      </root>
    </mxGraphModel>
  </diagram>
</mxfile>
